<?xml version="1.0" encoding="UTF-8" standalone="no"?>
<!-- Created with Inkscape (http://www.inkscape.org/) -->

<svg
   width="100"
   height="100"
   viewBox="0 0 26.458333 26.458333"
   version="1.1"
   id="svg1"
   xml:space="preserve"
   xmlns="http://www.w3.org/2000/svg"
   xmlns:svg="http://www.w3.org/2000/svg"><defs
     id="defs1" /><g
     id="layer1"
     transform="matrix(-1,0,0,1,26.458333,0)"><path
       id="rect1"
       d="m 5.3094755,2.6150777 c -1.5305838,0 -2.7627923,1.232209 -2.7627923,2.762793 V 21.080462 c 0,1.530585 1.232208,2.762794 2.7627923,2.762794 H 21.148856 c 1.530585,0 2.762794,-1.232209 2.762794,-2.762794 V 5.3778707 c 0,-1.530584 -1.232209,-2.762793 -2.762794,-2.762793 z m 10.1262835,4.348431 c 0.754089,-0.03657 1.877465,1.063971 1.224639,1.796085 l -4.334401,4.3344013 4.583971,4.583699 c 0.576307,0.962216 -0.75294,2.332123 -1.620445,1.620712 l -4.583966,-4.583969 -2.71e-4,2.7e-4 -1.0722014,-1.072471 c -0.233148,-0.286273 -0.381363,-0.605451 0.053151,-1.150174 l 1.0190504,-1.01905 2.71e-4,2.7e-4 4.362726,-4.3627303 c 0.100692,-0.09433 0.227835,-0.14027 0.367476,-0.147043 z" /></g></svg>
